<mxfile host="app.diagrams.net" modified="2023-07-17T10:10:54.062Z" agent="Mozilla/5.0 (Windows NT 10.0; Win64; x64; rv:102.0) Gecko/20100101 Firefox/102.0" version="21.5.2" etag="pcPvlpWAjPttbQ5o8BsZ" type="github">
  <diagram name="Seite-1" id="7Gv9IBaCPcja_07nEdUA">
    <mxGraphModel>
      <root>
        <mxCell id="0" />
        <mxCell id="1" parent="0" />
      </root>
    </mxGraphModel>
  </diagram>
</mxfile>
